<mxfile host="app.diagrams.net" modified="2024-01-03T11:15:05.369Z" agent="Mozilla/5.0 (Windows NT 10.0; Win64; x64) AppleWebKit/537.36 (KHTML, like Gecko) Chrome/120.0.0.0 Safari/537.36 Edg/120.0.0.0" etag="F9T99rrfwpBPyrIec1hp" version="22.1.16" type="device">
  <diagram name="第 1 页" id="BCN3tFbRewiLEiZ5SPea">
    <mxGraphModel dx="2206" dy="796" grid="1" gridSize="10" guides="1" tooltips="1" connect="1" arrows="1" fold="1" page="1" pageScale="1" pageWidth="827" pageHeight="1169" math="0" shadow="0">
      <root>
        <mxCell id="0" />
        <mxCell id="1" parent="0" />
        <mxCell id="2vNJUWua-FyW8lq2cTQ3-2" value="" style="sketch=0;outlineConnect=0;fontColor=#232F3E;gradientColor=none;fillColor=#C925D1;strokeColor=none;dashed=0;verticalLabelPosition=bottom;verticalAlign=top;align=center;html=1;fontSize=12;fontStyle=0;aspect=fixed;pointerEvents=1;shape=mxgraph.aws4.rds_mysql_instance;" vertex="1" parent="1">
          <mxGeometry x="440" y="370" width="78" height="78" as="geometry" />
        </mxCell>
        <mxCell id="2vNJUWua-FyW8lq2cTQ3-3" value="" style="sketch=0;points=[[0,0,0],[0.25,0,0],[0.5,0,0],[0.75,0,0],[1,0,0],[0,1,0],[0.25,1,0],[0.5,1,0],[0.75,1,0],[1,1,0],[0,0.25,0],[0,0.5,0],[0,0.75,0],[1,0.25,0],[1,0.5,0],[1,0.75,0]];outlineConnect=0;fontColor=#232F3E;fillColor=#C925D1;strokeColor=#ffffff;dashed=0;verticalLabelPosition=bottom;verticalAlign=top;align=center;html=1;fontSize=12;fontStyle=0;aspect=fixed;shape=mxgraph.aws4.resourceIcon;resIcon=mxgraph.aws4.memorydb_for_redis;" vertex="1" parent="1">
          <mxGeometry x="440" y="486" width="78" height="78" as="geometry" />
        </mxCell>
        <mxCell id="2vNJUWua-FyW8lq2cTQ3-4" value="gateway" style="sketch=0;outlineConnect=0;fontColor=#232F3E;gradientColor=none;fillColor=#ED7100;strokeColor=none;dashed=0;verticalLabelPosition=bottom;verticalAlign=top;align=center;html=1;fontSize=12;fontStyle=0;aspect=fixed;pointerEvents=1;shape=mxgraph.aws4.container_3;" vertex="1" parent="1">
          <mxGeometry x="160" y="338" width="108.38" height="70" as="geometry" />
        </mxCell>
        <mxCell id="2vNJUWua-FyW8lq2cTQ3-5" value="crossserver" style="sketch=0;outlineConnect=0;fontColor=#232F3E;gradientColor=none;fillColor=#ED7100;strokeColor=none;dashed=0;verticalLabelPosition=bottom;verticalAlign=top;align=center;html=1;fontSize=12;fontStyle=0;aspect=fixed;pointerEvents=1;shape=mxgraph.aws4.container_3;" vertex="1" parent="1">
          <mxGeometry x="-40" y="490" width="108.38" height="70" as="geometry" />
        </mxCell>
        <mxCell id="2vNJUWua-FyW8lq2cTQ3-10" style="edgeStyle=orthogonalEdgeStyle;rounded=0;orthogonalLoop=1;jettySize=auto;html=1;" edge="1" parent="1" source="2vNJUWua-FyW8lq2cTQ3-6" target="2vNJUWua-FyW8lq2cTQ3-3">
          <mxGeometry relative="1" as="geometry" />
        </mxCell>
        <mxCell id="2vNJUWua-FyW8lq2cTQ3-14" style="edgeStyle=none;rounded=0;orthogonalLoop=1;jettySize=auto;html=1;" edge="1" parent="1" source="2vNJUWua-FyW8lq2cTQ3-6" target="2vNJUWua-FyW8lq2cTQ3-2">
          <mxGeometry relative="1" as="geometry" />
        </mxCell>
        <mxCell id="2vNJUWua-FyW8lq2cTQ3-6" value="gameserver" style="sketch=0;outlineConnect=0;fontColor=#232F3E;gradientColor=none;fillColor=#ED7100;strokeColor=none;dashed=0;verticalLabelPosition=bottom;verticalAlign=top;align=center;html=1;fontSize=12;fontStyle=0;aspect=fixed;pointerEvents=1;shape=mxgraph.aws4.container_3;" vertex="1" parent="1">
          <mxGeometry x="160" y="490" width="108.38" height="70" as="geometry" />
        </mxCell>
        <mxCell id="2vNJUWua-FyW8lq2cTQ3-7" value="centerserver" style="sketch=0;outlineConnect=0;fontColor=#232F3E;gradientColor=none;fillColor=#ED7100;strokeColor=none;dashed=0;verticalLabelPosition=bottom;verticalAlign=top;align=center;html=1;fontSize=12;fontStyle=0;aspect=fixed;pointerEvents=1;shape=mxgraph.aws4.container_3;" vertex="1" parent="1">
          <mxGeometry x="160" y="640" width="108.38" height="70" as="geometry" />
        </mxCell>
        <mxCell id="2vNJUWua-FyW8lq2cTQ3-15" value="" style="endArrow=classic;startArrow=classic;html=1;rounded=0;" edge="1" parent="1" source="2vNJUWua-FyW8lq2cTQ3-5" target="2vNJUWua-FyW8lq2cTQ3-6">
          <mxGeometry width="50" height="50" relative="1" as="geometry">
            <mxPoint x="400" y="370" as="sourcePoint" />
            <mxPoint x="450" y="320" as="targetPoint" />
          </mxGeometry>
        </mxCell>
        <mxCell id="2vNJUWua-FyW8lq2cTQ3-16" value="" style="endArrow=classic;startArrow=classic;html=1;rounded=0;" edge="1" parent="1" source="2vNJUWua-FyW8lq2cTQ3-6" target="2vNJUWua-FyW8lq2cTQ3-4">
          <mxGeometry width="50" height="50" relative="1" as="geometry">
            <mxPoint x="460" y="210" as="sourcePoint" />
            <mxPoint x="510" y="160" as="targetPoint" />
          </mxGeometry>
        </mxCell>
        <mxCell id="2vNJUWua-FyW8lq2cTQ3-18" value="" style="endArrow=classic;startArrow=classic;html=1;rounded=0;" edge="1" parent="1" source="2vNJUWua-FyW8lq2cTQ3-7" target="2vNJUWua-FyW8lq2cTQ3-6">
          <mxGeometry width="50" height="50" relative="1" as="geometry">
            <mxPoint x="620" y="430" as="sourcePoint" />
            <mxPoint x="670" y="380" as="targetPoint" />
          </mxGeometry>
        </mxCell>
      </root>
    </mxGraphModel>
  </diagram>
</mxfile>
